<svg width="90" height="90" viewBox="0 0 90 90" fill="none" xmlns="http://www.w3.org/2000/svg">
<path d="M85.2087 35.8773H4.48467C3.29526 35.8773 2.15457 36.3498 1.31353 37.1909C0.47249 38.0319 0 39.1726 0 40.362C0.000199981 48.2341 2.07249 55.9674 6.0086 62.7847C9.94471 69.602 15.6059 75.2632 22.4233 79.1992V85.2087C22.4233 86.3981 22.8958 87.5388 23.7369 88.3798C24.5779 89.2209 25.7186 89.6934 26.908 89.6934H62.7854C63.9748 89.6934 65.1155 89.2209 65.9565 88.3798C66.7975 87.5388 67.27 86.3981 67.27 85.2087V79.1992C74.0874 75.2632 79.7486 69.602 83.6848 62.7847C87.6209 55.9674 89.6932 48.2341 89.6934 40.362C89.6934 39.1726 89.2209 38.0319 88.3798 37.1909C87.5388 36.3498 86.3981 35.8773 85.2087 35.8773ZM65.9565 76.5084C61.4716 78.203 63.2212 76.7859 62.7854 77.4991C62.7854 79.0944 62.7795 84.3729 62.7854 85.2087H58.3007H31.3927H25.6523C25.6581 84.3729 26.0881 77.2216 25.6523 76.5084C25.2165 75.7952 24.8899 76.7815 22.4233 74.4757C17.1176 71.8523 13.2109 65.9534 9.77577 61.1333C6.34065 56.3132 5.23287 46.2334 4.48467 40.362H85.2087C84.4605 46.2334 83.6554 56.3132 80.2203 61.1333C76.7852 65.9534 71.2623 73.885 65.9565 76.5084ZM31.3927 31.3927V26.5941C31.386 21.3185 29.3274 16.2523 25.6523 12.4674C24.6125 11.4167 23.7917 10.1701 23.2374 8.79978C22.6831 7.42947 22.4064 5.96274 22.4233 4.48467V0H16.3262V4.48467C16.3095 9.79132 19.5406 13.7284 23.2374 17.5356C25.3155 19.6358 25.6626 23.6395 25.6523 26.5941V31.3927H31.3927ZM44.5445 31.3927V26.5941C44.5379 21.3185 44.0371 18.0956 40.362 14.3106C39.3222 13.26 37.6873 10.1701 37.133 8.79978C36.5788 7.42947 37.1161 4.29988 37.133 2.82181V0H31.3927V4.48467C31.3993 9.76029 33.4579 14.8264 37.133 18.6114C38.1728 19.662 38.9937 20.9087 39.5479 22.279C40.1022 23.6493 40.3789 25.116 40.362 26.5941V31.3927H44.5445ZM58.3007 31.3927V26.5941C58.294 21.3185 57.4911 18.0956 53.816 14.3106C52.7762 13.26 51.6493 10.1701 51.095 8.79978C50.5407 7.42947 50.1711 5.40846 50.188 3.93038V0H45.0482V5.44207C45.0549 10.7177 44.3965 11.6343 48.0716 15.4192C49.1114 16.4698 53.2617 20.9087 53.816 22.279C54.3703 23.6493 53.8329 25.7323 53.816 27.2103V31.3927H58.3007Z" fill="white"/>
<path d="M32.791 76.7936C32.791 76.7936 34.6252 71.3516 44.5822 71.3516C54.5391 71.3516 56.3733 76.7936 56.3733 76.7936" stroke="white" stroke-width="4"/>
<path d="M31.1283 44.0054C31.1283 44.0054 30.9452 46.088 25.8234 48.4526C20.7017 50.8172 18.9978 49.6058 18.9978 49.6058" stroke="white" stroke-width="3"/>
<path d="M68.9991 47.1101C68.9991 47.1101 67.6829 48.6932 62.505 47.6376C57.327 46.582 56.7356 44.6101 56.7356 44.6101" stroke="white" stroke-width="3"/>
<circle cx="31.2789" cy="59.5604" r="6.95375" fill="white"/>
<circle cx="31.2788" cy="59.5604" r="4.02586" fill="#191919"/>
<circle cx="56.1666" cy="59.5604" r="6.95375" fill="white"/>
<circle cx="56.1665" cy="59.5604" r="4.02586" fill="#191919"/>
</svg>
