<svg width="235" height="235" viewBox="0 0 235 235" fill="none" xmlns="http://www.w3.org/2000/svg">
<path d="M230.576 174.864C207.995 210.817 165.856 235 117.595 235C67.6905 235 24.331 209.143 2.3749 171.152C-1.3698 165.638 0.434561 163.051 0.434561 163.051C2.08243 159.477 9.67772 159.773 9.67772 159.773H224.952C224.952 159.773 231.906 159.761 233.191 162.828C233.191 162.828 236.51 167.601 230.576 174.864Z" fill="#FFCB00"/>
<path d="M144.221 146.223C111.77 154.191 75.7295 146.43 50.2771 122.934C23.9579 98.6398 15.8631 63.8933 25.9889 33.1681C27.1642 28.437 29.5937 27.9514 29.5937 27.9514C32.505 26.868 36.3415 30.7224 36.3415 30.7224L147.221 133.075L149.876 135.526C149.876 135.526 153.551 138.905 152.476 141.148C152.476 141.148 151.501 145.282 144.221 146.223Z" fill="#22A45D"/>
<path d="M144.623 119.367C122.78 107.677 108.088 85.8619 108.088 60.8781C108.088 35.043 123.797 12.5961 146.878 1.22964C150.228 -0.709373 151.8 0.225029 151.8 0.225029C153.971 1.07768 153.791 5.01019 153.791 5.01019V116.455C153.791 116.455 153.799 120.056 151.935 120.721C151.935 120.721 149.036 122.44 144.623 119.367Z" fill="#FF7058"/>
<path d="M161.758 126.211C156.831 109.114 161.63 90.1255 176.156 76.7155C191.179 62.8489 212.663 58.584 231.661 63.9196C234.585 64.5385 234.886 65.8181 234.886 65.8181C235.555 67.3521 233.173 69.3736 233.173 69.3736L169.887 127.792L168.372 129.191C168.372 129.191 166.282 131.127 164.896 130.561C164.896 130.561 162.339 130.047 161.758 126.211Z" fill="#FFD15C"/>
</svg>
