<svg width="95" height="51" viewBox="0 0 95 51" fill="none" xmlns="http://www.w3.org/2000/svg">
<path d="M0 0.319824H94.1177V27.598L89.459 34.8769L94.1177 41.3552V50.3198H0V23.0122L2.91161 19.6638L0 16.4611V0.319824Z" fill="#016FD0"/>
<path d="M18.2703 42.3749V27.5985H33.9157L35.5944 29.7868L37.3286 27.5985H94.1177V41.356C94.1177 41.356 92.6326 42.3602 90.9149 42.375H59.4696L57.577 40.0457V42.375H51.3753V38.3988C51.3753 38.3988 50.5281 38.9538 48.6966 38.9538H46.5857V42.375H37.1958L35.5195 40.1398L33.8176 42.375L18.2703 42.3749ZM0 16.4616L3.5281 8.23633H9.62965L11.6318 12.8438V8.23633H19.2166L20.4085 11.5665L21.564 8.23633H55.6117V9.91051C55.6117 9.91051 57.4016 8.23633 60.3431 8.23633L71.3903 8.27501L73.3579 12.8221V8.23633H79.7052L81.4521 10.8483V8.23633H87.8577V23.0128H81.4521L79.778 20.3923V23.0127H70.4524L69.5145 20.6834H67.0076L66.085 23.0127H59.7607C57.2296 23.0127 55.6117 21.3728 55.6117 21.3728V23.0127H46.0761L44.1836 20.6835V23.0128H8.72576L7.78856 20.6835H5.28937L4.35906 23.0127H0V16.4616Z" fill="white"/>
<path d="M4.77817 10.058L0.0195312 21.1221H3.11767L3.99571 18.9066H9.10015L9.97356 21.1221H13.14L8.38572 10.058H4.77817ZM6.53878 12.6329L8.09464 16.5045H4.97838L6.53878 12.6329ZM13.4675 21.1202V10.0562L17.8701 10.0725L20.4308 17.206L22.9302 10.0562H27.2976V21.1202H24.5316V12.9678L21.5995 21.1202H19.1737L16.2335 12.9678V21.1202H13.4675ZM29.1901 21.1202V10.0562H38.2161V12.531H31.9853V14.4235H38.0705V16.7529H31.9853V18.7182H38.2161V21.1202H29.1901ZM39.8176 10.058V21.1221H42.5836V17.1914H43.7482L47.0646 21.1221H50.4449L46.8053 17.0458C48.299 16.9198 49.8398 15.6378 49.8398 13.6475C49.8398 11.3192 48.0124 10.058 45.9729 10.058H39.8176ZM42.5836 12.5329H45.7453C46.5039 12.5329 47.0556 13.1262 47.0556 13.6975C47.0556 14.4325 46.3407 14.8622 45.7863 14.8622H42.5836V12.5329ZM53.7932 21.1202H50.969V10.0562H53.7932V21.1202ZM60.4899 21.1202H59.8804C56.9307 21.1202 55.1398 18.7963 55.1398 15.6337C55.1398 12.3928 56.9106 10.0562 60.6354 10.0562H63.6926V12.6766H60.5237C59.0117 12.6766 57.9423 13.8566 57.9423 15.6609C57.9423 17.8037 59.1651 18.7036 60.9266 18.7036H61.6545L60.4899 21.1202ZM66.5088 10.058L61.7501 21.1221H64.8483L65.7262 18.9066H70.8306L71.7042 21.1221H74.8705L70.1164 10.058H66.5088ZM68.2694 12.6329L69.8252 16.5045H66.7089L68.2694 12.6329ZM75.1935 21.1202V10.0562H78.7102L83.2004 17.0076V10.0562H85.9665V21.1202H82.5635L77.9595 13.9869V21.1202H75.1935ZM20.1642 40.4824V29.4183H29.1901V31.8931H22.9593V33.7858H29.0445V36.115H22.9593V38.0804H29.1901V40.4824H20.1642ZM64.3915 40.4824V29.4183H73.4174V31.8931H67.1866V33.7858H73.2428V36.115H67.1865V38.0804H73.4173V40.4824H64.3915ZM29.5405 40.4824L33.9352 35.0187L29.4358 29.4183H32.9207L35.6003 32.8804L38.289 29.4183H41.6374L37.1972 34.9503L41.5999 40.4824H38.1157L35.5139 37.075L32.9753 40.4824H29.5405ZM41.9285 29.4202V40.4843H44.7673V36.9904H47.6789C50.1425 36.9904 52.0099 35.6834 52.0099 33.1416C52.0099 31.036 50.5453 29.4202 48.0382 29.4202H41.9285ZM44.7673 31.9224H47.8335C48.6294 31.9224 49.1983 32.4102 49.1983 33.1961C49.1983 33.9345 48.6323 34.47 47.8244 34.47H44.7673V31.9224ZM53.2109 29.4183V40.4824H55.9769V36.5517H57.1416L60.4581 40.4824H63.8382L60.1988 36.4062C61.6924 36.2801 63.2331 34.9981 63.2331 33.0077C63.2331 30.6795 61.4057 29.4183 59.3662 29.4183H53.2109ZM55.9769 31.8931H59.1387C59.8972 31.8931 60.449 32.4864 60.449 33.0578C60.449 33.7928 59.7341 34.2224 59.1797 34.2224H55.9769V31.8931ZM74.6985 40.4824V38.0804H80.2342C81.0533 38.0804 81.408 37.6377 81.408 37.1522C81.408 36.6871 81.0544 36.2169 80.2342 36.2169H77.7327C75.5583 36.2169 74.3473 34.8922 74.3473 32.9032C74.3473 31.1291 75.4563 29.4183 78.6875 29.4183H84.0739L82.9093 31.9078H78.2507C77.3602 31.9078 77.0861 32.375 77.0861 32.8213C77.0861 33.2798 77.4248 33.7858 78.1051 33.7858H80.7255C83.1494 33.7858 84.2013 35.1606 84.2013 36.9612C84.2013 38.897 83.0292 40.4824 80.5936 40.4824H74.6985ZM84.8505 40.4824V38.0804H90.3861C91.2053 38.0804 91.5599 37.6377 91.5599 37.1522C91.5599 36.6871 91.2064 36.2169 90.3861 36.2169H87.8847C85.7102 36.2169 84.4993 34.8922 84.4993 32.9032C84.4993 31.1291 85.6082 29.4183 88.8394 29.4183H94.2259L93.0612 31.9078H88.4027C87.5122 31.9078 87.238 32.375 87.238 32.8213C87.238 33.2798 87.5767 33.7858 88.2571 33.7858H90.8775C93.3014 33.7858 94.3532 35.1606 94.3532 36.9612C94.3532 38.897 93.1812 40.4824 90.7456 40.4824H84.8505Z" fill="#016FD0"/>
</svg>
